<svg width="201" height="40" viewBox="0 0 201 40" fill="none" xmlns="http://www.w3.org/2000/svg">
<g clip-path="url(#clip0_2_8)">
<path d="M9.33879 14.7234L4.07221 19.99L9.33879 25.2566L14.6054 19.99L9.33879 14.7234Z" fill="#D7B399"/>
<path d="M19.9944 4.08548L14.7278 9.35205L19.9944 14.6186L25.261 9.35205L19.9944 4.08548Z" fill="#D7B399"/>
<path d="M19.9914 25.3938L14.7248 30.6604L19.9913 35.927L25.2579 30.6604L19.9914 25.3938Z" fill="#D7B399"/>
<path d="M30.647 14.7266L25.3804 19.9932L30.647 25.2597L35.9136 19.9932L30.647 14.7266Z" fill="#D7B399"/>
<path d="M28.6102 12.6867L23.3436 17.9532L25.3828 19.9924L30.6494 14.7258L28.6102 12.6867Z" fill="#D7B399"/>
<path d="M17.9547 23.3533L12.6881 28.6199L14.7273 30.659L19.9938 25.3924L17.9547 23.3533Z" fill="#D7B399"/>
<path d="M25.2587 9.35305L19.9921 14.6196L22.0313 16.6588L27.2978 11.3922L25.2587 9.35305Z" fill="#D7B399"/>
<path d="M14.6177 20.0053L9.35116 25.2719L11.3903 27.311L16.6569 22.0444L14.6177 20.0053Z" fill="#D7B399"/>
<path d="M11.3788 12.6864L9.33961 14.7256L14.6062 19.9922L16.6453 17.953L11.3788 12.6864Z" fill="#D7B399"/>
<path d="M14.727 9.34953L12.6879 11.3887L17.9544 16.6552L19.9936 14.6161L14.727 9.34953Z" fill="#D7B399"/>
<path d="M25.3796 19.9905L23.3405 22.0297L28.607 27.2962L30.6462 25.2571L25.3796 19.9905Z" fill="#D7B399"/>
<path d="M22.046 23.3421L20.0069 25.3812L25.2734 30.6478L27.3126 28.6087L22.046 23.3421Z" fill="#D7B399"/>
<path d="M27.3029 32.6971L25.2697 30.6639L20 35.9336L14.7303 30.6639L12.6971 32.6971L20 40L27.3029 32.6971Z" fill="#D7B399"/>
<path d="M9.3361 14.7302L7.3029 12.697L0 19.9999L7.3029 27.3028L9.3361 25.2696L4.06639 19.9999L9.3361 14.7302Z" fill="#D7B399"/>
<path d="M32.6971 12.697L30.6639 14.7302L35.9336 19.9999L30.6639 25.2696L32.6971 27.3028L40 19.9999L32.6971 12.697Z" fill="#D7B399"/>
<path d="M25.2697 9.3361L27.3029 7.3029L20 0L12.6971 7.3029L14.7303 9.3361L20 4.06639L25.2697 9.3361Z" fill="#D7B399"/>
</g>
<path d="M65.472 29V15.368H60.096V12.2H74.736V15.368H69.36V29H65.472ZM89.5479 12.2H93.4359V29H89.5479V12.2ZM81.9159 29H78.0279V12.2H81.9159V29ZM89.8359 22.112H81.6279V18.824H89.8359V22.112ZM102.187 18.968H110.275V21.992H102.187V18.968ZM102.475 25.88H111.619V29H98.6108V12.2H111.307V15.32H102.475V25.88ZM123.909 29V12.2H127.797V25.832H136.221V29H123.909ZM147.472 29.288C146.144 29.288 144.912 29.072 143.776 28.64C142.656 28.208 141.68 27.6 140.848 26.816C140.032 26.032 139.392 25.112 138.928 24.056C138.48 23 138.256 21.848 138.256 20.6C138.256 19.352 138.48 18.2 138.928 17.144C139.392 16.088 140.04 15.168 140.872 14.384C141.704 13.6 142.68 12.992 143.8 12.56C144.92 12.128 146.136 11.912 147.448 11.912C148.776 11.912 149.992 12.128 151.096 12.56C152.216 12.992 153.184 13.6 154 14.384C154.832 15.168 155.48 16.088 155.944 17.144C156.408 18.184 156.64 19.336 156.64 20.6C156.64 21.848 156.408 23.008 155.944 24.08C155.48 25.136 154.832 26.056 154 26.84C153.184 27.608 152.216 28.208 151.096 28.64C149.992 29.072 148.784 29.288 147.472 29.288ZM147.448 25.976C148.2 25.976 148.888 25.848 149.512 25.592C150.152 25.336 150.712 24.968 151.192 24.488C151.672 24.008 152.04 23.44 152.296 22.784C152.568 22.128 152.704 21.4 152.704 20.6C152.704 19.8 152.568 19.072 152.296 18.416C152.04 17.76 151.672 17.192 151.192 16.712C150.728 16.232 150.176 15.864 149.536 15.608C148.896 15.352 148.2 15.224 147.448 15.224C146.696 15.224 146 15.352 145.36 15.608C144.736 15.864 144.184 16.232 143.704 16.712C143.224 17.192 142.848 17.76 142.576 18.416C142.32 19.072 142.192 19.8 142.192 20.6C142.192 21.384 142.32 22.112 142.576 22.784C142.848 23.44 143.216 24.008 143.68 24.488C144.16 24.968 144.72 25.336 145.36 25.592C146 25.848 146.696 25.976 147.448 25.976ZM168.922 29.288C167.594 29.288 166.362 29.072 165.226 28.64C164.106 28.208 163.13 27.6 162.298 26.816C161.482 26.032 160.842 25.112 160.378 24.056C159.93 23 159.706 21.848 159.706 20.6C159.706 19.352 159.93 18.2 160.378 17.144C160.842 16.088 161.49 15.168 162.322 14.384C163.154 13.6 164.13 12.992 165.25 12.56C166.37 12.128 167.586 11.912 168.898 11.912C170.226 11.912 171.442 12.128 172.546 12.56C173.666 12.992 174.634 13.6 175.45 14.384C176.282 15.168 176.93 16.088 177.394 17.144C177.858 18.184 178.09 19.336 178.09 20.6C178.09 21.848 177.858 23.008 177.394 24.08C176.93 25.136 176.282 26.056 175.45 26.84C174.634 27.608 173.666 28.208 172.546 28.64C171.442 29.072 170.234 29.288 168.922 29.288ZM168.898 25.976C169.65 25.976 170.338 25.848 170.962 25.592C171.602 25.336 172.162 24.968 172.642 24.488C173.122 24.008 173.49 23.44 173.746 22.784C174.018 22.128 174.154 21.4 174.154 20.6C174.154 19.8 174.018 19.072 173.746 18.416C173.49 17.76 173.122 17.192 172.642 16.712C172.178 16.232 171.626 15.864 170.986 15.608C170.346 15.352 169.65 15.224 168.898 15.224C168.146 15.224 167.45 15.352 166.81 15.608C166.186 15.864 165.634 16.232 165.154 16.712C164.674 17.192 164.298 17.76 164.026 18.416C163.77 19.072 163.642 19.8 163.642 20.6C163.642 21.384 163.77 22.112 164.026 22.784C164.298 23.44 164.666 24.008 165.13 24.488C165.61 24.968 166.17 25.336 166.81 25.592C167.45 25.848 168.146 25.976 168.898 25.976ZM182.212 29V12.2H189.484C190.988 12.2 192.284 12.448 193.372 12.944C194.46 13.424 195.3 14.12 195.892 15.032C196.484 15.944 196.78 17.032 196.78 18.296C196.78 19.544 196.484 20.624 195.892 21.536C195.3 22.448 194.46 23.152 193.372 23.648C192.284 24.128 190.988 24.368 189.484 24.368H184.372L186.1 22.616V29H182.212ZM186.1 23.048L184.372 21.2H189.268C190.468 21.2 191.364 20.944 191.956 20.432C192.548 19.92 192.844 19.208 192.844 18.296C192.844 17.368 192.548 16.648 191.956 16.136C191.364 15.624 190.468 15.368 189.268 15.368H184.372L186.1 13.52V23.048Z" fill="#212121"/>
<defs>
<clipPath id="clip0_2_8">
<rect width="40" height="40" fill="white"/>
</clipPath>
</defs>
</svg>
